# xmcd CD database file
#
# Track frame offsets:
#	150
#	25020
#	88100
#	130510
#
# Disc length: 2085 seconds
#
# Revision: 0
# Processed by: cddbd v1.5.2PL0 Copyright (c) Steve Scherf et al.
# Submitted via: CDex 1.70beta2
#
DISCID=24082304
DTITLE=Mal Waldron and Jeanne Lee - Maturity 4 White Road Black Rain
DYEAR=1995
DGENRE=Jazz
TTITLE0=Japonese Lullaby
TTITLE1=White Road
TTITLE2=Black Rain
TTITLE3=Sometime I feel like a Motherless Child
EXTD=YEAR: 1995
EXTT0=
EXTT1=
EXTT2=
EXTT3=
PLAYORDER=
